<svg id="Layer_1" data-name="Layer 1" xmlns="http://www.w3.org/2000/svg" viewBox="0 0 300.61 402.1"><defs><style>.cls-1,.cls-5{fill:#003b25;}.cls-2{fill:#5eb246;}.cls-3{fill:none;stroke:#5eb246;stroke-miterlimit:10;}.cls-4{font-size:31.56px;fill:#5fb048;font-family:aAppleTea, a Apple Tea;}.cls-5{font-size:26.43px;font-family:Gotham-Bold, Gotham;font-weight:700;}.cls-6{letter-spacing:-0.02em;}</style></defs><path class="cls-1" d="M330.39,446.13l-6.87,5.8s3.81,6.2-6.95,12.16c0,0-6.69,1.74-9.84,6.29s-6.87,6.86-11.83,7.52S280,487.5,280,487.5l-9.1-.83.65-5.63-2.48-2.48,2.07-5.13s-2.48-2.89-2.23-3a29.79,29.79,0,0,0,2.32-2.32l-.58-9.18a78.16,78.16,0,0,0-9.35-5.71c-4.14-2-12.41-13.23-10.34-19.85s3.39-6.37,3.39-6.37l.66-2.15-1.66-3.64-1.65-1.9-5.62.41L235.34,409s-8.31-3.88-9.35-5.46c0,0-12,1.24-17.84-10a176.7,176.7,0,0,0-13.46-21.4l6.95,16.25s-7.33-7.6-10.81-15.37a167.65,167.65,0,0,0-9.92-17.87l1-17.38-1.15.67.16-5.63-1.16.83-.33-2.82-1.32,1.33.82-3.3-1.82,1.81.5-8.43-1.16.66-.49-5.29-4,1.48V309.8l-3-2-4.3-.51-4.64,9.6-2.1-2.7s5-23.82,13.8-37.62l9-1.54,3.64-5.62,4.63,1.1,4.85-4.08,6.51,3.09-3.75,2.76,5.74-.56,2-1.21,2.76,2.43,1.88-.89-3.75-4.85-1.66,2-5.19-4.3,4.75-2.76-4-.44-1.43-2.65-5.29,3s-3-3.31,7.61-13c0,0,2.54-1.77,5.85,2s6.29,3.86,6.29,3.86-1.44-8.16,4.73-9.49c0,0-2.31,7.17,0,10.81s0,7.95,0,7.95L213.55,267l3.32,1.87,4.3-2.75,1.55-6.62,5.06,2.32s-4-7.95,1.44-10.59l3.09,3.2.55,5.4,2.43,3.53,1.21-4.74L239,267l3.32-9.48s7.49,1.65,6.06,5.84-3.64,9.71-3.64,9.71a7.06,7.06,0,0,0,3.09,6.72c3.86,2.88-2.32,2.32-2.32,2.32s-7.28,3.42-7-2.32c.13-3.49.18-4.48.2-4.73-.48.49-17,17.41-14.43,23.49s14.89,12.57,19.19,13.46c0,0-.11,7.72,1.87,8.82s4.75,3.09,4.75,3.09l1.65-1.77-2.42-7.28.66-4s5.07-2.31,5-4.3-4-7.5-4-7.5,1.45-2.76,1.77-3.42,0-9.93,0-9.93l9.82.88,6.4,6.73-2.43,5s3.64.33,4,.33,1.22,1.33,1.22,1.33l4.73-7.72,6.85,12.13-1.22,1.33,4.52,4.63h4.75v3.09l2.09,2.31v2.1l1.77.22-1.54,8.05v2.2h4.07l.67,3.32,2.09,2.43-8.27-.67-5.84-.22,3.42-5.52-.23-6.06-2.53,4.3-6.62.33,2.64,3.31L275,326.79l-10.58,8.39,12.24-6,1,6s8.27,2.2,8.6,2.2-11.58,8.28-11.58,8.28l-.33-4.53-9.05,5.07.56,3.65s-9.82,7.61-10,14.44l-9.37,9.16L249,386.14l-9.27-9.82-6.95-.12L230,378.86l-4.19-1.66s-9.7,4.06-7.28,11.18,4,14.3,9,10.66,4.19-5,4.19-5l5-.66-1.22,5.74v4.42l5.85,1.1,3.09,2.53,1.21,4-.33,1.88,3.42,1.54,5.41,2.2h2.31l4.19-3.63,4.86-1.1s8.05,4.08,12,3.47,5.08,1.26,5.08,1.26l9.76,6.9,6.78.33,6.51,8.38s8.78,1.82,9.37,4.14c0,0,12.44-.82,15.92,4.55Z" transform="translate(-157.96 -188.58)"/><path class="cls-1" d="M216.2,233.92l2.32,4.2a50.85,50.85,0,0,0-5.51,4.51c-7.18,6.29-10.71-1.1-10.71-1.1s1.22-1.32,5.75-5.18,6.39,2.2,6.39,2.2Z" transform="translate(-157.96 -188.58)"/><path class="cls-1" d="M218.63,238.34l-.11-.22C219,237.85,218.63,238.34,218.63,238.34Z" transform="translate(-157.96 -188.58)"/><polygon class="cls-1" points="69.27 52.73 68.44 62.08 65.22 64.8 60.81 60.09 64.06 59.35 69.27 52.73"/><polygon class="cls-1" points="79.2 52.73 72.99 59.68 72.17 59.68 71.75 59.27 72.41 52.07 77.05 49.17 79.2 52.73"/><polygon class="cls-1" points="75.48 46.19 74.23 49.17 70.67 47.77 68.36 50.16 62.73 45.99 63.9 44.29 68.27 43.63 70.93 41.81 75.48 46.19"/><path class="cls-1" d="M231.7,224.21c-.83,2.21-2,2.71-2,2.71l-2.14-3.76,2.15-1.87S232.53,222,231.7,224.21Z" transform="translate(-157.96 -188.58)"/><path class="cls-1" d="M238.43,225c-.06.16-1.32,1.93-1.93,1.93s-2.48-1.77-2.48-1.77l.55-3.53S238.43,224.77,238.43,225Z" transform="translate(-157.96 -188.58)"/><path class="cls-1" d="M254.92,230.06v5.08a5.34,5.34,0,0,1-3.75.88c-2.43-.23-14.63,1.28-14.63,1.28a15,15,0,0,0-3.93-7.9l3.61-.88,3.7-1.11.44,3,.66,1.21,1.33,1.25h1.42l1.88-1,3.2-1.43,3.21-2Z" transform="translate(-157.96 -188.58)"/><path class="cls-1" d="M356.29,237.3,351.48,242l.83,1.16-.49,5.46s2.81,1.49,3.63,3.81-1.31,4.8-1.31,4.8a22.13,22.13,0,0,0-6.95,3.47,20.63,20.63,0,0,1-8.77,3.15l-7.53,8.59-4.55-.66-3.31,2v6.95l-2.48,3.47V290l-4.47,4-5.79-3.15-2.48-1.66v-1.65l-5.79-5.3,2.64-6.28h-3.14l-2.81-2.81-.67-4.3-.21-8.56s3-1.43,3.3-1.54a19.15,19.15,0,0,0,2.21-2.25l.5-2.22-1.27-.54a39.16,39.16,0,0,1-2.26,3.2,13.2,13.2,0,0,1-3.2-1c-.5-.38-.78-3.36-.78-3.36l1.77-4,4.47.55-3.64-3.7a20.24,20.24,0,0,1-2.32,1.61c-.22,0-1.59-.34-1.59-.34l-.28-2.59V237.3l-.66-2.16L292.64,231a4.72,4.72,0,0,0-.66-1.66c-.55-.89-.89-.44-1.22-.56s-.66-.77-1.54-1.32-1.43-1.87-1.76-1.87H286c-.34,0-3.09.1-4.53.1s0,0-1.88.23a16.24,16.24,0,0,1-4.74-.11c-1.1-.22,0,0-.43-.33a30.61,30.61,0,0,0-2.88-1.76l-.51-.3c.1,0,.36.13.19,0-.33-.33-1.66-1.55-1.66-2s.66,0,.66,0,4.3-.71,5.51-.94,1.22,0,1.22,0l1.66-1.43a5.26,5.26,0,0,1-1.66-.33c-.89-.33-1-.22-1-.22l-3-.11h-1.55a9.2,9.2,0,0,1-1.43-.34v-1.64a4.19,4.19,0,0,1,.11-.89l.45-.77,1.64-.77,3.53-.33a10.83,10.83,0,0,0,2.65-.56,5.61,5.61,0,0,0,.78-.33l1.54-.77,1-.55a11.94,11.94,0,0,0,0-2.1c-.12-1.21,0,0-.67,0a19.4,19.4,0,0,1-2.87-.33c-.44-.11-.55-.44.33-1.43s3-.67,3-.67l3.76-2.2v-1.33s-1.22.67-1.55.78-1.77.44-1.77.44h-1.1a14.46,14.46,0,0,0-2.32,1.33l-.77,1.21-1.54,1.87L274,210.1l-2.31,1-2.1,1.43-1.88,1.88-3.08,2.42-1,.67-3.76,2.32-.55,2.86v2.43c0,.33-.88,1.1-.88,1.1l-2.1.72-1-.14-4.63,1.08L248,229.29l-4.85-1.88,1.87-3.13.22-1.83c-6.06.78-7-5.19-6.78-6.29s6-4.74,6-4.74l6.74.77-2.87-2.32C258,204,286,199.35,286,199.35l1.49,1.42,3.14,1.5,3.15-1.83s9.59.66,13.39.84a12.14,12.14,0,0,0,6.79-1.93,32.1,32.1,0,0,0,11.74.1c6.29-1.16,10.43,7.61,10.43,7.61l3.81-2.81.33,3.64,2.81-1.16c2.81-1.16,11.42,3.47,11.42,3.47l-5,5.47s-2.65,4.3.17,4.63,5.13,5.29,5.13,5.29l-5,.5,8.61,8.93-4.81-1.49Z" transform="translate(-157.96 -188.58)"/><path class="cls-1" d="M370.85,276.39l-8.17,6.39s-7.28-3.52-8.16-6.39l-.89-2.88-2.42-2.42,3.31-1.1,2.87,2.21h8.82l-1.1-2.21Z" transform="translate(-157.96 -188.58)"/><path class="cls-1" d="M258.5,396.17l-1.15,4-6.46-4.3-3.81-2.06-3.3.74-3.31-.17-.42-2.56S244.19,387.16,258.5,396.17Z" transform="translate(-157.96 -188.58)"/><polygon class="cls-1" points="112.46 210.73 111.21 213.13 107.36 214.29 102.85 213.29 102.28 210.73 107.07 208.41 112.46 210.73"/><path class="cls-1" d="M273.31,268.94l-.91,3.23,6.86,7.52L277,283.25l-6.36-3.38.33,2.72,3.39,2.32s2.15,2.48-1.57,1.9-8.85-4.89-8.85-4.89l-3-4.12L257.1,279,253,277.8s-.49-2.66.42-3S257,273,257,273l2.84-.51.63-2.06,1-1.49,1.23-1.57a8.88,8.88,0,0,1-.33-1.82,12.57,12.57,0,0,0-.08-1.32L259,266.05l-2.31-.08-1.33-.67-.08-.41.25-2.57a30.11,30.11,0,0,1,3-.57H261l-1.73-3.65s-2.4-1.65-2.56-1.9-1.08-2.15-1.08-2.15L253,255l-1.49.91-7,.33-4-1.15a7.38,7.38,0,0,1-2,.08,11.37,11.37,0,0,1-1.26-2.48v-1.17l-.94-2.48s5.72-9.51,8.21-10.25a1.75,1.75,0,0,1,2.49,1.73l2.82-1.73,6.44-.14,4.39,5.19,2.73,4.46,3-.91,7.45,6.7.9,4.05-2.56,1.5,11.42,7.27-3.39,7.94Z" transform="translate(-157.96 -188.58)"/><path class="cls-2" d="M399.94,465.57q-4.85,4.2-10.06,8l0,0C353.79,497.4,319,498.75,319,498.75l.88-.29A154.66,154.66,0,0,0,399.94,465.57Z" transform="translate(-157.96 -188.58)"/><path class="cls-2" d="M458.58,344a155.38,155.38,0,0,1-138.7,154.49c75-25,70.6-95.58,70.6-95.58-5.74-105.6,28.68-140.12,28.68-140.12s7.72,56.65,8.38,83.11c.65,26.07-15,64.76-15.43,65.93,34.64-67.65,25.51-119.66,18.6-141.81,0-.13-.08-.26-.14-.41s-.16-.54-.26-.83A70.77,70.77,0,0,0,425.16,258a155.39,155.39,0,0,0-223.57-31.62A155.38,155.38,0,0,1,458.58,344Z" transform="translate(-157.96 -188.58)"/><path class="cls-3" d="M399.94,465.57q-4.85,4.2-10.06,8l0,0C353.79,497.4,319,498.75,319,498.75l.88-.29A154.66,154.66,0,0,0,399.94,465.57Z" transform="translate(-157.96 -188.58)"/><text class="cls-4" transform="translate(31.85 358.07) scale(0.91 1)">W O R L D W I D E</text><text class="cls-5" transform="translate(46.47 394.25)">OU<tspan class="cls-6" x="42.45" y="0">T</tspan><tspan x="59.18" y="0">SOURCING</tspan></text></svg>