<svg id="Layer_1" data-name="Layer 1" xmlns="http://www.w3.org/2000/svg" viewBox="0 0 105.32 25.01"><defs><style>.cls-1,.cls-4{fill:#003b25;}.cls-2{fill:#5eb246;}.cls-3{font-size:10.1px;fill:#5fb048;font-family:aAppleTea, a Apple Tea;}.cls-4{font-size:8.46px;font-family:Gotham-Bold, Gotham;font-weight:700;}.cls-5{letter-spacing:-0.02em;}.cls-6{letter-spacing:0em;}</style></defs><path class="cls-1" d="M149.46,333.83l-.54.46s.3.49-.55,1a1.56,1.56,0,0,0-.78.5,1.26,1.26,0,0,1-.94.59,3.7,3.7,0,0,0-1.17.76l-.72-.06.05-.45-.2-.2.17-.4s-.2-.23-.18-.24a1.53,1.53,0,0,0,.18-.18l0-.72a6,6,0,0,0-.74-.46c-.33-.15-1-1-.82-1.57s.27-.5.27-.5l.05-.17-.13-.29-.13-.15-.44,0-.85-.85a3.45,3.45,0,0,1-.74-.44,1.48,1.48,0,0,1-1.41-.79,14.51,14.51,0,0,0-1.07-1.69l.55,1.29a5,5,0,0,1-.85-1.22,14.61,14.61,0,0,0-.79-1.41l.08-1.38-.09.06v-.45l-.09.07,0-.22-.1.1.07-.26-.15.14,0-.66-.09,0,0-.42-.31.12v-.74l-.24-.15-.34,0-.37.76-.16-.22a10.85,10.85,0,0,1,1.09-3l.71-.12.29-.45.37.09.38-.32.52.24-.3.22.45,0,.16-.1.22.19.15-.07-.3-.38-.13.16-.41-.34.37-.22-.31,0L139,319l-.42.24s-.24-.26.6-1c0,0,.2-.14.46.16a.79.79,0,0,0,.5.3s-.11-.64.37-.75a1.32,1.32,0,0,0,0,.86.64.64,0,0,1,0,.62l-.27.23.27.15.34-.22.12-.52.4.18s-.32-.63.11-.84l.25.26,0,.42.19.28.1-.37.2.66.26-.75s.59.13.48.46-.29.77-.29.77a.55.55,0,0,0,.25.53c.3.23-.19.19-.19.19s-.57.27-.56-.19c0-.27,0-.35,0-.37s-1.35,1.37-1.14,1.86a2.86,2.86,0,0,0,1.52,1.06s0,.61.14.7a3.45,3.45,0,0,1,.38.24l.13-.14-.19-.57,0-.32s.4-.18.39-.34a2.21,2.21,0,0,0-.31-.59l.14-.27a6.92,6.92,0,0,0,0-.79l.77.07.51.54-.19.39.31,0s.1.11.1.11l.37-.61.54,1-.09.1.36.37h.37v.24l.17.19v.16l.14,0-.13.63v.18h.33l.05.26.16.19-.65-.05-.46,0,.27-.43,0-.48-.2.34-.52,0,.21.26-.64-.21-.84.66,1-.47.08.47.68.17s-.92.66-.92.66l0-.36-.72.4.05.29s-.78.6-.8,1.14l-.74.73.2,1-.73-.78h-.55l-.22.21-.33-.13s-.77.32-.57.89.31,1.13.71.84.33-.39.33-.39l.39-.06-.09.46v.35l.46.08.24.2.1.32,0,.15.28.12.42.17h.19l.33-.29.38-.08a2.36,2.36,0,0,0,.95.27c.31-.05.4.1.4.1l.77.55.54,0,.51.67s.69.14.74.32c0,0,1-.06,1.26.36Z" transform="translate(-135.83 -313.47)"/><path class="cls-1" d="M140.43,317.06l.19.33a3.45,3.45,0,0,0-.44.35c-.57.5-.85-.08-.85-.08a5.49,5.49,0,0,1,.46-.41c.36-.31.5.17.5.17Z" transform="translate(-135.83 -313.47)"/><path class="cls-1" d="M140.62,317.4h0S140.62,317.4,140.62,317.4Z" transform="translate(-135.83 -313.47)"/><polygon class="cls-1" points="5.48 4.17 5.41 4.91 5.16 5.12 4.81 4.75 5.06 4.69 5.48 4.17"/><polygon class="cls-1" points="6.26 4.17 5.77 4.72 5.71 4.72 5.67 4.68 5.72 4.12 6.09 3.89 6.26 4.17"/><polygon class="cls-1" points="5.97 3.65 5.87 3.89 5.59 3.78 5.4 3.97 4.96 3.63 5.05 3.5 5.4 3.45 5.61 3.31 5.97 3.65"/><path class="cls-1" d="M141.66,316.29a.38.38,0,0,1-.16.21l-.17-.3.17-.14S141.72,316.11,141.66,316.29Z" transform="translate(-135.83 -313.47)"/><path class="cls-1" d="M142.19,316.35s-.1.15-.15.15-.2-.14-.2-.14l0-.28A3.74,3.74,0,0,1,142.19,316.35Z" transform="translate(-135.83 -313.47)"/><path class="cls-1" d="M143.49,316.75v.4a.39.39,0,0,1-.29.07c-.19,0-1.16.1-1.16.1a1.14,1.14,0,0,0-.31-.62l.29-.07.29-.09,0,.24,0,.09.11.1h.11l.15-.08.25-.11.26-.16Z" transform="translate(-135.83 -313.47)"/><path class="cls-1" d="M151.51,317.32l-.38.37.06.09,0,.44a.61.61,0,0,1,.29.3.44.44,0,0,1-.1.38,1.6,1.6,0,0,0-.55.27,1.64,1.64,0,0,1-.7.25l-.59.68-.36-.05-.26.15v.55l-.2.28v.46l-.35.31-.46-.25-.2-.13v-.13l-.45-.42.21-.5h-.25l-.22-.22-.06-.34v-.68l.26-.12s.17-.18.17-.18l0-.17-.1,0s-.17.25-.18.25a.79.79,0,0,1-.25-.08s-.06-.26-.06-.26l.14-.32.35,0L147,318a1.4,1.4,0,0,1-.18.13l-.13,0,0-.2v-.54l0-.17-.11-.33a.35.35,0,0,0-.06-.13c0-.07-.07,0-.09,0s-.05-.07-.12-.11-.12-.15-.14-.15h-.48c-.11,0,0,0-.14,0a1.15,1.15,0,0,1-.38,0c-.09,0,0,0,0,0l-.23-.14,0,0h0s-.13-.12-.13-.16.06,0,.06,0l.43-.08h.1l.13-.11a.37.37,0,0,1-.13,0c-.07,0-.08,0-.08,0h-.36l-.11,0v-.13a.35.35,0,0,1,0-.07l0-.06.13-.06.28,0a1.08,1.08,0,0,0,.21,0l.06,0,.12-.06.08,0a.78.78,0,0,0,0-.17c0-.09,0,0-.05,0l-.23,0s0,0,0-.12.23,0,.23,0l.3-.17v-.11l-.12.06-.14,0h-.09a1.45,1.45,0,0,0-.18.1l-.06.1-.12.15-.18.09-.18.08-.17.11-.15.15-.24.19-.08.06-.29.18,0,.23v.19s-.07.09-.07.09l-.16.05h-.08l-.37.09-.22.11-.38-.15.15-.25,0-.14a.47.47,0,0,1-.54-.5c0-.09.47-.37.47-.37l.54.06-.23-.19a12.94,12.94,0,0,1,3-.83l.12.11.24.12.25-.14,1.06.06a.92.92,0,0,0,.54-.15,2.56,2.56,0,0,0,.93,0c.49-.09.82.6.82.6l.3-.22,0,.29.22-.09c.22-.1.9.27.9.27l-.39.43s-.21.34,0,.37.41.42.41.42l-.39,0,.68.7-.38-.12Z" transform="translate(-135.83 -313.47)"/><path class="cls-1" d="M152.66,320.41l-.65.51s-.57-.28-.64-.51l-.07-.22-.19-.2.26-.08.22.17h.7l-.09-.17Z" transform="translate(-135.83 -313.47)"/><path class="cls-1" d="M143.78,329.88l-.09.32-.51-.34-.31-.17-.26.06h-.26l0-.2S142.65,329.17,143.78,329.88Z" transform="translate(-135.83 -313.47)"/><polygon class="cls-1" points="8.89 16.66 8.79 16.85 8.49 16.94 8.13 16.86 8.09 16.66 8.46 16.48 8.89 16.66"/><path class="cls-1" d="M145,319.82l-.07.26.54.59-.18.29-.5-.27,0,.21.27.19s.17.19-.12.15a2,2,0,0,1-.7-.39l-.24-.33-.3.1-.32-.1s0-.21,0-.23l.28-.15.22,0,.05-.16.08-.12.1-.12a.61.61,0,0,1,0-.14v-.11l-.26.15h-.19l-.1,0v0l0-.2.24,0H144l-.13-.29-.21-.15-.08-.17-.21.07-.12.07-.56,0-.31-.09h-.16s-.1-.19-.1-.19v-.1l-.07-.19s.45-.75.64-.81.2.13.2.13l.22-.13h.51l.35.41.22.35.23-.07.59.53.07.32-.2.12.9.57-.27.63Z" transform="translate(-135.83 -313.47)"/><path class="cls-2" d="M159.59,325.76a12.27,12.27,0,0,1-11,12.21,7.74,7.74,0,0,0,5.58-7.56c-.45-8.35,2.27-11.08,2.27-11.08s.61,4.48.66,6.58a16.72,16.72,0,0,1-1.22,5.21c2.74-5.35,2-9.46,1.47-11.21v0s0,0,0-.06A6.13,6.13,0,0,0,157,319a12.29,12.29,0,0,0-17.67-2.5,12.28,12.28,0,0,1,20.31,9.3Z" transform="translate(-135.83 -313.47)"/><text class="cls-3" transform="translate(28.13 10.92) scale(0.91 1)">W O R L D W I D E</text><text class="cls-4" transform="translate(32.81 22.5)">OU<tspan class="cls-5" x="13.59" y="0">T</tspan><tspan class="cls-6" x="18.94" y="0">SOURCING</tspan></text></svg>